<svg xmlns="http://www.w3.org/2000/svg" xmlns:xlink="http://www.w3.org/1999/xlink" id="lewagon-logo" width="48" height="60" aria-labelledby="lewagon-logo-title" class="logo" role="img" version="1.1" viewBox="0 -12 48 72"><title id="lewagon-logo-title">Le Wagon Coding Bootcamp logo</title><g><ellipse cx="24.026" cy="24" fill="#FD1015" rx="24.026" ry="24"/><g fill="#FFF"><path d="M1.45600601,16.524475 C1.43540836,16.6639995 1.3150454,16.7710843 1.169644,16.7710843 C1.16570875,16.7710843 1.16179183,16.7710059 1.15789474,16.7708505 L0.289473684,16.7710843 C0.129601783,16.7710843 1.95786612e-17,16.6416245 0,16.4819277 L0,15.9036145 C-1.95786612e-17,15.7439177 0.129601783,15.6144578 0.289473684,15.6144578 L0.289472979,11.8554217 C0.289473684,11.6957249 0.419075467,11.5662651 0.578947368,11.5662651 L22.8715164,11.5662651 C24.4187065,11.5662651 25.8083015,12.2402709 26.7620909,13.3103769 C26.8339492,13.3909985 26.9243094,13.5037059 27.0331716,13.6484992 C27.142525,13.7939457 27.3140109,13.8795248 27.4961077,13.8795181 L27.8006046,13.8795181 C28.0149943,13.8795181 28.3013894,13.8795191 28.6597897,13.8795211 C28.978662,13.8805417 29.2368421,14.1390689 29.2368421,14.4578313 L29.2368421,16.1927711 C29.2368421,16.5121647 28.9776385,16.7710843 28.6578947,16.7710843 L26.6315789,16.7710843 C26.6277256,16.7710077 26.6238528,16.7710843 26.6199622,16.7710843 C26.4600903,16.7710843 26.3304885,16.6416245 26.3304885,16.4819277 C26.1831192,14.7008586 24.6894027,13.3012048 22.8684211,13.3012048 C21.0474394,13.3012048 19.5537229,14.7008586 19.4066266,16.4819277 C19.4065524,16.6416245 19.2769506,16.7710843 19.1170787,16.7710843 C19.1131211,16.7710843 19.1091821,16.771005 19.1052632,16.7708478 L8.68421053,16.7710843 C8.52433863,16.7710843 8.39473684,16.6416245 8.39473684,16.4819277 L8.38284706,16.4819277 C8.23575075,14.7008586 6.74203425,13.3012048 4.92105263,13.3012048 C3.10007101,13.3012048 1.60635451,14.7008586 1.4592582,16.4819277 C1.45911769,16.4825185 1.45911591,16.4831089 1.45911237,16.4836989 C1.4579986,16.497269 1.45696299,16.5108611 1.45600601,16.524475 Z M28.6578947,12.4337349 C28.6578947,12.5934317 28.528293,12.7228916 28.3684211,12.7228916 L27.9132794,12.7228916 C27.8306391,12.7228916 27.7519387,12.6876108 27.6970147,12.6259309 C27.5071076,12.4127218 27.3567657,12.2537574 27.2459891,12.1490378 C26.1054401,11.0708514 24.5657802,10.4096386 22.8715164,10.4096386 L0.578947368,10.4096386 C0.419075467,10.4096386 0.289473684,10.2801787 0.289473684,10.1204819 L0.289471393,3.39356387 C0.289472484,2.09588342 1.24653211,0.996507948 2.53305591,0.816355796 C6.41962679,0.272118599 10.0786071,-5.43119854e-14 13.5099969,-5.68e-14 C19.6365774,-6.01587591e-14 22.0186022,0.487113276 24.3157895,1.73493976 C25.714629,2.49478594 27.0433119,4.32971713 28.3018381,7.23973333 C28.5367251,7.7828473 28.6578947,8.36822082 28.6578947,8.95984898 L28.6578947,12.4337349 Z M0.289472763,10.6987952 L0.289473684,10.6987952 L0.289473684,11.2771084 L0.289472871,11.2771084 L0.289472763,10.6987952 Z M2.02631579,3.18072289 C1.86644389,3.18072289 1.73684211,3.31018272 1.73684211,3.46987952 L1.73684211,7.80722892 C1.73684211,7.96692571 1.86644389,8.09638554 2.02631579,8.09638554 L6.36842105,8.09638554 C6.52829295,8.09638554 6.65789474,7.96692571 6.65789474,7.80722892 L6.65789474,3.46987952 C6.65789474,3.31018272 6.52829295,3.18072289 6.36842105,3.18072289 L2.02631579,3.18072289 Z M14.1842105,3.18072289 C14.0243386,3.18072289 13.8947368,3.31018272 13.8947368,3.46987952 L13.8947368,7.80722892 C13.8947368,7.96692571 14.0243386,8.09638554 14.1842105,8.09638554 L18.5263158,8.09638554 C18.6861877,8.09638554 18.8157895,7.96692571 18.8157895,7.80722892 L18.8157895,3.46987952 C18.8157895,3.31018272 18.6861877,3.18072289 18.5263158,3.18072289 L14.1842105,3.18072289 Z M8.10526316,3.18072289 C7.94539126,3.18072289 7.81578947,3.31018272 7.81578947,3.46987952 L7.81578947,7.80722892 C7.81578947,7.96692571 7.94539126,8.09638554 8.10526316,8.09638554 L12.4473684,8.09638554 C12.6072403,8.09638554 12.7368421,7.96692571 12.7368421,7.80722892 L12.7368421,3.46987952 C12.7368421,3.31018272 12.6072403,3.18072289 12.4473684,3.18072289 L8.10526316,3.18072289 Z M20.2631527,3.18072265 C20.1032808,3.18072265 19.973679,3.31018249 19.973679,3.46987928 L19.9736792,7.80722892 C19.9736792,7.96692571 20.1032809,8.09638554 20.2631528,8.09638554 L26.9384345,8.09638554 C26.9739059,8.09638554 27.0090751,8.08987312 27.0421895,8.07717285 C27.1914344,8.01993335 27.2659687,7.85267713 27.2086665,7.70359562 C26.8914163,6.87819361 26.5247263,6.11905253 26.108604,5.42616952 C26.0460592,5.32202651 25.9885531,5.21877757 25.9360893,5.11642087 C25.3270091,3.92820949 24.1031492,3.18072469 22.7667649,3.18072403 L20.2631528,3.1807228 Z M4.92105263,19.0843373 C3.64207742,19.0843373 2.60526316,18.0486587 2.60526316,16.7710843 C2.60526316,15.49351 3.64207742,14.4578313 4.92105263,14.4578313 C6.20002784,14.4578313 7.23684211,15.49351 7.23684211,16.7710843 C7.23684211,18.0486587 6.20002784,19.0843373 4.92105263,19.0843373 Z M4.92105263,17.9277108 C5.56054024,17.9277108 6.07894737,17.4098715 6.07894737,16.7710843 C6.07894737,16.1322972 5.56054024,15.6144578 4.92105263,15.6144578 C4.28156503,15.6144578 3.76315789,16.1322972 3.76315789,16.7710843 C3.76315789,17.4098715 4.28156503,17.9277108 4.92105263,17.9277108 Z M22.8684211,19.0843373 C21.5894458,19.0843373 20.5526316,18.0486587 20.5526316,16.7710843 C20.5526316,15.49351 21.5894458,14.4578313 22.8684211,14.4578313 C24.1473963,14.4578313 25.1842105,15.49351 25.1842105,16.7710843 C25.1842105,18.0486587 24.1473963,19.0843373 22.8684211,19.0843373 Z M22.8684211,17.9277108 C23.5079087,17.9277108 24.0263158,17.4098715 24.0263158,16.7710843 C24.0263158,16.1322972 23.5079087,15.6144578 22.8684211,15.6144578 C22.2289334,15.6144578 21.7105263,16.1322972 21.7105263,16.7710843 C21.7105263,17.4098715 22.2289334,17.9277108 22.8684211,17.9277108 Z" transform="translate(9.842105, 13.590361)"/></g></g></svg>
